<svg width="46" height="46" viewBox="0 0 46 46" fill="none" xmlns="http://www.w3.org/2000/svg">
<rect x="1" y="1" width="44" height="44" rx="8" stroke="#DDDDDD"/>
<path d="M11 19.8V13.2C11 12.8817 11.1264 12.5765 11.3515 12.3515C11.5765 12.1264 11.8817 12 12.2 12H33.8C34.1183 12 34.4235 12.1264 34.6485 12.3515C34.8736 12.5765 35 12.8817 35 13.2V19.8C34.2044 19.8 33.4413 20.1161 32.8787 20.6787C32.3161 21.2413 32 22.0044 32 22.8C32 23.5956 32.3161 24.3587 32.8787 24.9213C33.4413 25.4839 34.2044 25.8 35 25.8V32.4C35 32.7183 34.8736 33.0235 34.6485 33.2485C34.4235 33.4736 34.1183 33.6 33.8 33.6H12.2C11.8817 33.6 11.5765 33.4736 11.3515 33.2485C11.1264 33.0235 11 32.7183 11 32.4V25.8C11.7956 25.8 12.5587 25.4839 13.1213 24.9213C13.6839 24.3587 14 23.5956 14 22.8C14 22.0044 13.6839 21.2413 13.1213 20.6787C12.5587 20.1161 11.7956 19.8 11 19.8V19.8ZM19.4 19.2V21.6H26.6V19.2H19.4ZM19.4 24V26.4H26.6V24H19.4Z" fill="#505050"/>
</svg>
