<svg width="40" height="40" viewBox="0 0 40 40" fill="none" xmlns="http://www.w3.org/2000/svg">
<g filter="url(#filter0_d_508_1580)">
<circle cx="20" cy="20" r="14" fill="white"/>
</g>
<path d="M21.1998 20.0033L26.3366 14.8665C26.4704 14.7103 26.5403 14.5093 26.5324 14.3038C26.5244 14.0982 26.4392 13.9033 26.2938 13.7578C26.1483 13.6124 25.9534 13.5272 25.7478 13.5192C25.5423 13.5113 25.3413 13.5812 25.1851 13.715L20.0483 18.8518L14.9114 13.7068C14.7577 13.553 14.5491 13.4666 14.3316 13.4666C14.1141 13.4666 13.9056 13.553 13.7518 13.7068C13.598 13.8606 13.5116 14.0692 13.5116 14.2867C13.5116 14.5041 13.598 14.7127 13.7518 14.8665L18.8968 20.0033L13.7518 25.1402C13.6663 25.2134 13.5968 25.3035 13.5478 25.4048C13.4988 25.5061 13.4713 25.6165 13.4669 25.7289C13.4626 25.8414 13.4815 25.9536 13.5226 26.0583C13.5636 26.1631 13.6259 26.2583 13.7055 26.3379C13.7851 26.4175 13.8803 26.4798 13.9851 26.5208C14.0899 26.5619 14.202 26.5808 14.3145 26.5765C14.427 26.5722 14.5373 26.5446 14.6386 26.4956C14.74 26.4466 14.8301 26.3771 14.9033 26.2917L20.0483 21.1548L25.1851 26.2917C25.3413 26.4254 25.5423 26.4954 25.7478 26.4874C25.9534 26.4795 26.1483 26.3943 26.2938 26.2488C26.4392 26.1034 26.5244 25.9084 26.5324 25.7029C26.5403 25.4973 26.4704 25.2964 26.3366 25.1402L21.1998 20.0033Z" fill="black"/>
<defs>
<filter id="filter0_d_508_1580" x="0" y="0" width="40" height="40" filterUnits="userSpaceOnUse" color-interpolation-filters="sRGB">
<feFlood flood-opacity="0" result="BackgroundImageFix"/>
<feColorMatrix in="SourceAlpha" type="matrix" values="0 0 0 0 0 0 0 0 0 0 0 0 0 0 0 0 0 0 127 0" result="hardAlpha"/>
<feOffset/>
<feGaussianBlur stdDeviation="3"/>
<feColorMatrix type="matrix" values="0 0 0 0 0 0 0 0 0 0 0 0 0 0 0 0 0 0 0.25 0"/>
<feBlend mode="normal" in2="BackgroundImageFix" result="effect1_dropShadow_508_1580"/>
<feBlend mode="normal" in="SourceGraphic" in2="effect1_dropShadow_508_1580" result="shape"/>
</filter>
</defs>
</svg>
