<svg width="46" height="46" viewBox="0 0 46 46" fill="none" xmlns="http://www.w3.org/2000/svg">
<rect x="1" y="1" width="44" height="44" rx="8" stroke="#DDDDDD"/>
<path d="M16.5833 17.9231C16.5833 19.494 17.2594 21.0005 18.4627 22.1113C19.6661 23.2221 21.2982 23.8462 23 23.8462C24.7018 23.8462 26.3339 23.2221 27.5373 22.1113C28.7406 21.0005 29.4167 19.494 29.4167 17.9231C29.4167 16.3522 28.7406 14.8456 27.5373 13.7348C26.3339 12.624 24.7018 12 23 12C21.2982 12 19.6661 12.624 18.4627 13.7348C17.2594 14.8456 16.5833 16.3522 16.5833 17.9231ZM32.1667 34H12.9167C12.6736 34 12.4404 33.9109 12.2685 33.7522C12.0966 33.5935 12 33.3783 12 33.1538V30.6154C12 29.4933 12.4829 28.4172 13.3424 27.6238C14.202 26.8304 15.3678 26.3846 16.5833 26.3846H29.4167C30.6322 26.3846 31.798 26.8304 32.6576 27.6238C33.5171 28.4172 34 29.4933 34 30.6154V33.1538C34 33.3783 33.9034 33.5935 33.7315 33.7522C33.5596 33.9109 33.3264 34 33.0833 34H32.1667Z" fill="#505050"/>
</svg>
