<svg width="26" height="26" viewBox="0 0 26 26" fill="none" xmlns="http://www.w3.org/2000/svg">
<path d="M13 26C20.1797 26 26 20.1797 26 13C26 5.82027 20.1797 -3.05176e-05 13 -3.05176e-05C5.8203 -3.05176e-05 0 5.82027 0 13C0 20.1797 5.8203 26 13 26Z" fill="white"/>
<path d="M13.0001 23.4C18.7439 23.4 23.4001 18.7437 23.4001 13C23.4001 7.25621 18.7439 2.59998 13.0001 2.59998C7.25634 2.59998 2.6001 7.25621 2.6001 13C2.6001 18.7437 7.25634 23.4 13.0001 23.4Z" fill="white"/>
<path d="M12.3501 4.54999H13.6501V13H12.3501V4.54999Z" fill="black"/>
<path d="M17.7355 16.6751L16.6793 17.732L12.4517 13.5044L13.5086 12.4469L17.7355 16.6751Z" fill="#9A3ACC"/>
<path d="M13 14.3C13.7179 14.3 14.3 13.7179 14.3 13C14.3 12.282 13.7179 11.7 13 11.7C12.282 11.7 11.7 12.282 11.7 13C11.7 13.7179 12.282 14.3 13 14.3Z" fill="black"/>
<path d="M13.0001 13.65C13.3591 13.65 13.6501 13.359 13.6501 13C13.6501 12.641 13.3591 12.35 13.0001 12.35C12.6411 12.35 12.3501 12.641 12.3501 13C12.3501 13.359 12.6411 13.65 13.0001 13.65Z" fill="#00ACC1"/>
</svg>
