<svg width="46" height="46" viewBox="0 0 46 46" fill="none" xmlns="http://www.w3.org/2000/svg">
<rect x="1" y="1" width="44" height="44" rx="8" fill="white" stroke="#DDDDDD"/>
<path d="M32.5395 21.6882C32.539 21.6877 32.5385 21.6873 32.5381 21.6868L24.3117 13.4607C23.961 13.1099 23.4948 12.9167 22.9989 12.9167C22.503 12.9167 22.0369 13.1098 21.6861 13.4606L13.464 21.6825C13.4612 21.6853 13.4584 21.6882 13.4556 21.691C12.7356 22.4152 12.7368 23.5902 13.4592 24.3126C13.7892 24.6428 14.2251 24.834 14.6911 24.854C14.7101 24.8559 14.7291 24.8568 14.7484 24.8568H15.0763V30.9107C15.0763 32.1086 16.0509 33.0833 17.2492 33.0833H20.4676C20.7938 33.0833 21.0585 32.8189 21.0585 32.4925V27.7463C21.0585 27.1996 21.5031 26.7549 22.0498 26.7549H23.9481C24.4948 26.7549 24.9394 27.1996 24.9394 27.7463V32.4925C24.9394 32.8189 25.2039 33.0833 25.5302 33.0833H28.7487C29.9469 33.0833 30.9216 32.1086 30.9216 30.9107V24.8568H31.2256C31.7214 24.8568 32.1876 24.6637 32.5385 24.3129C33.2617 23.5893 33.262 22.4123 32.5395 21.6882Z" fill="#505050"/>
</svg>
