<svg width="40" height="40" viewBox="0 0 40 40" fill="none" xmlns="http://www.w3.org/2000/svg">
<circle cx="20" cy="20" r="19.5" fill="#FC942D" stroke="white"/>
<path d="M29.5564 14.0214C29.5562 13.6279 29.4035 13.2499 29.1303 12.9667C28.8572 12.6835 28.4849 12.5172 28.0917 12.5028V12.5H12.4348V12.5042C12.4077 12.5028 12.3808 12.5 12.3534 12.5C12.0387 12.5002 11.7319 12.598 11.4751 12.7798C11.2184 12.9616 11.0243 13.2186 10.9196 13.5153C10.815 13.812 10.8049 14.1339 10.8908 14.4366C10.9766 14.7393 11.1542 15.0079 11.3991 15.2054L18.4535 22.2596L18.4533 26.6128V26.6489H18.4568C18.4627 26.7831 18.5026 26.9136 18.5727 27.0283C18.6429 27.1429 18.7409 27.2378 18.8578 27.3042L18.8557 27.308L20.6981 28.3717C20.7136 28.3825 20.7307 28.3902 20.7468 28.3998L20.7534 28.4036V28.4033C20.8709 28.4712 21.0057 28.5131 21.1513 28.5131C21.2563 28.5131 21.3602 28.4925 21.4573 28.4523C21.5543 28.4121 21.6424 28.3532 21.7167 28.279C21.7909 28.2047 21.8498 28.1166 21.89 28.0196C21.9302 27.9226 21.9508 27.8186 21.9508 27.7136C21.9508 27.6925 21.9461 27.6726 21.9447 27.652H21.9508V22.2662L29.07 15.1472L29.063 15.1401C29.2185 14.9982 29.3427 14.8254 29.4276 14.6327C29.5126 14.4401 29.5564 14.2319 29.5564 14.0214V14.0214ZM16.0395 15.5427H16.0428L16.043 15.5462L16.0395 15.5427Z" fill="white"/>
</svg>
