<svg width="46" height="46" viewBox="0 0 46 46" fill="none" xmlns="http://www.w3.org/2000/svg">
<rect x="1" y="1" width="44" height="44" rx="8" stroke="#DDDDDD"/>
<path d="M28.4997 14.4999C28.4997 12.0146 26.485 10 23.9998 10C21.5145 10 19.4999 12.0146 19.4999 14.4999C19.4999 16.9852 21.5145 18.9998 23.9998 18.9998C26.485 18.9998 28.4997 16.9852 28.4997 14.4999ZM22.9493 21.3013C20.1683 19.5989 15.6637 19.1311 13.3968 19.0022C12.6351 18.959 12 19.5393 12 20.272V30.7155C12 31.3872 12.5433 31.9474 13.2417 31.9835C15.2882 32.0908 19.4286 32.4841 22.2903 33.9255C22.7295 34.1467 23.2502 33.8453 23.2502 33.3691V21.8385C23.2498 21.6196 23.1415 21.419 22.9493 21.3013ZM34.6027 19.0022C32.3363 19.1306 27.8313 19.5989 25.0507 21.3013C24.8585 21.419 24.7502 21.6276 24.7502 21.8465V33.3677C24.7502 33.8453 25.2724 34.1472 25.713 33.9255C28.5742 32.4855 32.7123 32.0922 34.7583 31.9849C35.4567 31.9483 36 31.3882 36 30.7165V20.272C35.9995 19.5393 35.3644 18.959 34.6027 19.0022Z" fill="#505050"/>
</svg>
