<svg width="24" height="24" viewBox="0 0 24 24" fill="none" xmlns="http://www.w3.org/2000/svg">
<path d="M12 24C5.3724 24 0 18.6276 0 12C0 5.3724 5.3724 0 12 0C18.6276 0 24 5.3724 24 12C23.9928 18.624 18.624 23.9928 12 24ZM12 2.4C10.1013 2.4 8.24524 2.96303 6.66653 4.01789C5.08781 5.07275 3.85736 6.57207 3.13076 8.32624C2.40416 10.0804 2.21404 12.0106 2.58446 13.8729C2.95488 15.7351 3.86919 17.4456 5.21178 18.7882C6.55436 20.1308 8.26492 21.0451 10.1271 21.4155C11.9894 21.786 13.9196 21.5958 15.6738 20.8692C17.4279 20.1426 18.9272 18.9122 19.9821 17.3335C21.037 15.7548 21.6 13.8987 21.6 12C21.5971 9.4548 20.5848 7.01466 18.7851 5.21493C16.9853 3.4152 14.5452 2.40286 12 2.4V2.4ZM9.6 19.2C9.5832 19.2 9.432 19.194 8.4 19.194H7.2V19.1148C7.2 19.0752 7.2 19.0212 7.2084 18.9552C7.26023 18.2279 7.45258 17.5176 7.7748 16.8636C8.10837 16.1776 8.61762 15.5922 9.2508 15.1668L9.2676 15.156L9.2868 15.1416L9.3048 15.132H9.3348L9.348 15.1236C10.1457 14.6364 11.0653 14.3855 12 14.4C12.9715 14.3742 13.9285 14.6396 14.748 15.162C15.3804 15.588 15.8892 16.1736 16.224 16.8588C16.4688 17.3556 16.6392 17.8848 16.7268 18.432C16.7652 18.6576 16.782 18.8388 16.7892 18.9504C16.7892 19.0032 16.7964 19.056 16.7976 19.11V19.1844H14.3976V19.1136C14.3976 19.0476 14.382 18.9456 14.3604 18.8184C14.3101 18.5074 14.2147 18.2054 14.0772 17.922C13.9286 17.6104 13.7005 17.3435 13.416 17.148C12.9883 16.8957 12.4959 16.7746 12 16.8C11.5029 16.7783 11.0104 16.9035 10.584 17.16C10.2998 17.3558 10.0718 17.6227 9.9228 17.934C9.74151 18.3073 9.63317 18.7117 9.6036 19.1256V19.1952H9.6V19.2ZM7.8 12C7.32261 12 6.86477 11.8104 6.52721 11.4728C6.18964 11.1352 6 10.6774 6 10.2C6 9.72261 6.18964 9.26477 6.52721 8.92721C6.86477 8.58964 7.32261 8.4 7.8 8.4C8.27739 8.4 8.73523 8.58964 9.07279 8.92721C9.41036 9.26477 9.6 9.72261 9.6 10.2C9.6 10.6774 9.41036 11.1352 9.07279 11.4728C8.73523 11.8104 8.27739 12 7.8 12ZM16.1916 11.9832C15.7164 11.9832 15.2607 11.7944 14.9247 11.4585C14.5888 11.1225 14.4 10.6668 14.4 10.1916C14.4 9.71644 14.5888 9.26074 14.9247 8.92475C15.2607 8.58876 15.7164 8.4 16.1916 8.4C16.6668 8.4 17.1225 8.58876 17.4585 8.92475C17.7944 9.26074 17.9832 9.71644 17.9832 10.1916C17.9832 10.6668 17.7944 11.1225 17.4585 11.4585C17.1225 11.7944 16.6668 11.9832 16.1916 11.9832Z" fill="#FF4208"/>
</svg>
