<svg width="46" height="46" viewBox="0 0 46 46" fill="none" xmlns="http://www.w3.org/2000/svg">
<rect x="1" y="1" width="44" height="44" rx="8" stroke="#DDDDDD"/>
<path d="M34.7032 21.1859L32.0205 20.3851C31.8351 19.7376 31.58 19.112 31.2598 18.5193L32.5731 16.0609C32.6224 15.9681 32.6404 15.8619 32.6245 15.758C32.6087 15.6542 32.5597 15.5582 32.485 15.4844L30.5711 13.5625C30.4973 13.4877 30.4013 13.4388 30.2974 13.4229C30.1936 13.4071 30.0874 13.4251 29.9946 13.4744L27.5522 14.7797C26.9537 14.4439 26.3199 14.1753 25.6623 13.9789L24.8615 11.3283C24.8277 11.2306 24.7637 11.1462 24.6788 11.0872C24.5939 11.0282 24.4924 10.9977 24.3891 11H21.6824C21.5785 11.0005 21.4773 11.0341 21.3938 11.096C21.3103 11.158 21.2487 11.2449 21.218 11.3443L20.4172 13.9869C19.7542 14.1823 19.1149 14.4508 18.5113 14.7877L16.109 13.4904C16.0162 13.4411 15.91 13.4231 15.8061 13.4389C15.7023 13.4548 15.6063 13.5038 15.5324 13.5785L13.5865 15.4763C13.5118 15.5502 13.4629 15.6462 13.447 15.75C13.4311 15.8539 13.4492 15.9601 13.4984 16.0529L14.7957 18.4553C14.4594 19.0563 14.1909 19.6928 13.9949 20.3531L11.3443 21.1539C11.245 21.1846 11.158 21.2462 11.0961 21.3297C11.0341 21.4132 11.0005 21.5144 11 21.6183V24.325C11.0005 24.429 11.0341 24.5301 11.0961 24.6136C11.158 24.6972 11.245 24.7588 11.3443 24.7894L14.0109 25.5902C14.209 26.2395 14.4775 26.8652 14.8117 27.456L13.4984 29.9705C13.4492 30.0633 13.4311 30.1695 13.447 30.2734C13.4629 30.3772 13.5118 30.4732 13.5865 30.5471L15.5004 32.4609C15.5742 32.5357 15.6702 32.5846 15.7741 32.6005C15.878 32.6163 15.9842 32.5983 16.077 32.549L18.5514 31.2277C19.1367 31.5436 19.7542 31.7959 20.3932 31.9805L21.194 34.6791C21.2246 34.7785 21.2862 34.8654 21.3698 34.9274C21.4533 34.9893 21.5544 35.023 21.6584 35.0234H24.3651C24.469 35.023 24.5702 34.9893 24.6537 34.9274C24.7372 34.8654 24.7988 34.7785 24.8295 34.6791L25.6303 31.9725C26.2638 31.787 26.8759 31.5346 27.4561 31.2197L29.9465 32.549C30.0393 32.5983 30.1455 32.6163 30.2494 32.6005C30.3532 32.5846 30.4492 32.5357 30.5231 32.4609L32.4369 30.5471C32.5117 30.4732 32.5606 30.3772 32.5765 30.2734C32.5924 30.1695 32.5743 30.0633 32.525 29.9705L31.1957 27.4881C31.5139 26.9057 31.769 26.2909 31.9565 25.6543L34.6551 24.8535C34.7545 24.8228 34.8414 24.7612 34.9034 24.6777C34.9653 24.5942 34.999 24.493 34.9995 24.3891V21.6584C35.0042 21.5588 34.9783 21.4602 34.9254 21.3757C34.8724 21.2913 34.7949 21.225 34.7032 21.1859V21.1859ZM23.0358 27.416C22.1647 27.416 21.3131 27.1577 20.5889 26.6738C19.8646 26.1898 19.3001 25.5019 18.9667 24.6972C18.6334 23.8924 18.5461 23.0068 18.7161 22.1525C18.886 21.2981 19.3055 20.5133 19.9214 19.8974C20.5374 19.2814 21.3222 18.862 22.1765 18.692C23.0309 18.5221 23.9164 18.6093 24.7212 18.9427C25.526 19.276 26.2139 19.8405 26.6978 20.5648C27.1818 21.2891 27.4401 22.1406 27.4401 23.0117C27.4401 24.1798 26.976 25.3001 26.1501 26.126C25.3241 26.952 24.2039 27.416 23.0358 27.416V27.416Z" fill="#505050"/>
</svg>
