<svg width="24" height="24" viewBox="0 0 24 24" fill="none" xmlns="http://www.w3.org/2000/svg">
<path d="M12.0007 1.31596C6.0997 1.31596 1.3167 6.09896 1.3167 12C1.3167 17.901 6.0997 22.684 12.0007 22.684C17.9017 22.684 22.6847 17.901 22.6847 12C22.6727 6.10396 17.8967 1.32796 12.0017 1.31596H12.0007ZM12.0007 23.613C5.5867 23.613 0.387695 18.414 0.387695 12C0.387695 5.58596 5.5867 0.386963 12.0007 0.386963C18.4147 0.386963 23.6137 5.58596 23.6137 12V12.015C23.6137 18.42 18.4217 23.612 12.0167 23.612H12.0007H12.0017L12.0007 23.613Z" fill="#FC942D"/>
<path d="M12 24C5.373 24 0 18.627 0 12C0 5.373 5.373 0 12 0C18.627 0 24 5.373 24 12C23.966 18.614 18.614 23.966 12.003 24H12ZM12 0.774C5.8 0.774 0.774 5.8 0.774 12C0.774 18.2 5.8 23.226 12 23.226C18.2 23.226 23.226 18.2 23.226 12C23.222 5.802 18.198 0.779 12.001 0.774H12ZM12 23.148C5.886 23.148 0.929 18.191 0.929 12.077C0.929 5.963 5.886 1.006 12 1.006C18.114 1.006 23.071 5.963 23.071 12.077C23.071 18.191 18.114 23.148 12 23.148ZM12 1.703C6.313 1.703 1.703 6.313 1.703 12C1.703 17.687 6.313 22.297 12 22.297C17.687 22.297 22.297 17.687 22.297 12V11.995C22.297 6.311 17.689 1.703 12.005 1.703H12Z" fill="#FC942D"/>
<path d="M18.1161 14.245V14.281C18.1161 15.8935 17.4755 17.44 16.3353 18.5802C15.1951 19.7204 13.6486 20.361 12.0361 20.361H11.9981H12.0001H11.9641C10.3516 20.361 8.80511 19.7204 7.66489 18.5802C6.52466 17.44 5.88409 15.8935 5.88409 14.281V14.243V14.245H18.1161ZM9.67709 9.90997V9.91897C9.67709 11.069 8.74509 12.001 7.59509 12.001H7.58609C7.17273 12.001 6.76865 11.8784 6.42495 11.6487C6.08125 11.4191 5.81337 11.0927 5.65519 10.7108C5.497 10.3289 5.45561 9.90865 5.53625 9.50323C5.6169 9.09781 5.81595 8.72541 6.10824 8.43312C6.40053 8.14082 6.77294 7.94177 7.17836 7.86113C7.58378 7.78049 8.00401 7.82187 8.3859 7.98006C8.7678 8.13825 9.09421 8.40613 9.32387 8.74983C9.55352 9.09353 9.67609 9.49761 9.67609 9.91097L9.67709 9.90997ZM18.5811 9.90997C18.5811 10.4643 18.3609 10.9959 17.9689 11.3878C17.577 11.7798 17.0454 12 16.4911 12C15.9368 12 15.4052 11.7798 15.0132 11.3878C14.6213 10.9959 14.4011 10.4643 14.4011 9.90997V9.90097C14.4011 8.75097 15.3331 7.81897 16.4831 7.81897H16.4921C17.0427 7.8297 17.5678 8.05307 17.9574 8.44229C18.347 8.83151 18.5708 9.35638 18.5821 9.90697V9.90897L18.5811 9.90997Z" fill="#FC942D"/>
</svg>
