<svg width="36" height="36" viewBox="0 0 36 36" fill="none" xmlns="http://www.w3.org/2000/svg">
<path d="M15 1.73205C16.4641 0.886751 17.1962 0.464102 18 0.464102C18.8038 0.464102 19.5359 0.886751 21 1.73205L30.5885 7.26795C32.0526 8.11325 32.7846 8.5359 33.1865 9.23205C33.5885 9.9282 33.5885 10.7735 33.5885 12.4641V23.5359C33.5885 25.2265 33.5885 26.0718 33.1865 26.768C32.7846 27.4641 32.0526 27.8868 30.5885 28.7321L21 34.2679C19.5359 35.1132 18.8038 35.5359 18 35.5359C17.1962 35.5359 16.4641 35.1132 15 34.2679L5.41154 28.7321C3.94744 27.8868 3.21539 27.4641 2.81347 26.768C2.41154 26.0718 2.41154 25.2265 2.41154 23.5359V12.4641C2.41154 10.7735 2.41154 9.9282 2.81347 9.23205C3.21539 8.5359 3.94744 8.11325 5.41154 7.26795L15 1.73205Z" fill="#FC942D"/>
<path d="M20.1992 8.89062V26H17.0938V12.5117L12.9805 13.8711V11.3633L19.8477 8.89062H20.1992Z" fill="white"/>
</svg>
