<svg width="32" height="32" viewBox="0 0 32 32" fill="none" xmlns="http://www.w3.org/2000/svg">
<path d="M13 1.73205C14.4641 0.886751 15.1962 0.464102 16 0.464102C16.8038 0.464102 17.5359 0.886751 19 1.73205L26.8564 6.26795C28.3205 7.11325 29.0526 7.5359 29.4545 8.23205C29.8564 8.9282 29.8564 9.7735 29.8564 11.4641V20.5359C29.8564 22.2265 29.8564 23.0718 29.4545 23.768C29.0526 24.4641 28.3205 24.8868 26.8564 25.732L19 30.2679C17.5359 31.1132 16.8038 31.5359 16 31.5359C15.1962 31.5359 14.4641 31.1132 13 30.268L5.14359 25.7321C3.67949 24.8868 2.94744 24.4641 2.54552 23.768C2.14359 23.0718 2.14359 22.2265 2.14359 20.5359V11.4641C2.14359 9.7735 2.14359 8.9282 2.54552 8.23205C2.94744 7.5359 3.67949 7.11325 5.14359 6.26795L13 1.73205Z" fill="#D1D1D1"/>
<path d="M15.202 22.162C14.53 22.162 13.84 22.072 13.132 21.892C12.436 21.712 11.836 21.43 11.332 21.046C11.092 20.89 10.948 20.704 10.9 20.488C10.852 20.272 10.876 20.08 10.972 19.912C11.068 19.732 11.218 19.612 11.422 19.552C11.626 19.492 11.854 19.54 12.106 19.696C12.622 20.008 13.126 20.236 13.618 20.38C14.11 20.512 14.62 20.578 15.148 20.578C16.012 20.578 16.666 20.392 17.11 20.02C17.566 19.648 17.794 19.114 17.794 18.418C17.794 17.722 17.566 17.206 17.11 16.87C16.666 16.534 16.018 16.366 15.166 16.366H13.942C13.378 16.366 13.096 16.102 13.096 15.574C13.096 15.058 13.378 14.8 13.942 14.8H14.986C15.742 14.8 16.336 14.608 16.768 14.224C17.212 13.84 17.434 13.312 17.434 12.64C17.434 12.028 17.23 11.56 16.822 11.236C16.414 10.9 15.832 10.732 15.076 10.732C14.572 10.732 14.104 10.798 13.672 10.93C13.24 11.062 12.79 11.296 12.322 11.632C12.094 11.776 11.884 11.824 11.692 11.776C11.5 11.716 11.35 11.602 11.242 11.434C11.146 11.254 11.116 11.062 11.152 10.858C11.188 10.642 11.32 10.456 11.548 10.3C12.052 9.928 12.616 9.646 13.24 9.454C13.876 9.25 14.536 9.148 15.22 9.148C16.492 9.148 17.482 9.442 18.19 10.03C18.898 10.606 19.252 11.41 19.252 12.442C19.252 13.138 19.072 13.75 18.712 14.278C18.364 14.806 17.878 15.19 17.254 15.43C18.01 15.622 18.592 15.994 19 16.546C19.408 17.086 19.612 17.752 19.612 18.544C19.612 19.66 19.216 20.542 18.424 21.19C17.644 21.838 16.57 22.162 15.202 22.162Z" fill="white"/>
</svg>
