<svg width="32" height="32" viewBox="0 0 32 32" fill="none" xmlns="http://www.w3.org/2000/svg">
<path d="M13 1.73205C14.4641 0.886751 15.1962 0.464102 16 0.464102C16.8038 0.464102 17.5359 0.886751 19 1.73205L26.8564 6.26795C28.3205 7.11325 29.0526 7.5359 29.4545 8.23205C29.8564 8.9282 29.8564 9.7735 29.8564 11.4641V20.5359C29.8564 22.2265 29.8564 23.0718 29.4545 23.768C29.0526 24.4641 28.3205 24.8868 26.8564 25.732L19 30.2679C17.5359 31.1132 16.8038 31.5359 16 31.5359C15.1962 31.5359 14.4641 31.1132 13 30.268L5.14359 25.7321C3.67949 24.8868 2.94744 24.4641 2.54552 23.768C2.14359 23.0718 2.14359 22.2265 2.14359 20.5359V11.4641C2.14359 9.7735 2.14359 8.9282 2.54552 8.23205C2.94744 7.5359 3.67949 7.11325 5.14359 6.26795L13 1.73205Z" fill="#FFBF47"/>
<path d="M20.5889 20.1719V22H11.9229V20.4355L16.0801 15.9443C16.5137 15.4521 16.8564 15.0244 17.1084 14.6611C17.3604 14.2979 17.5391 13.9697 17.6445 13.6768C17.7559 13.3779 17.8115 13.0938 17.8115 12.8242C17.8115 12.4316 17.7412 12.0889 17.6006 11.7959C17.46 11.4971 17.2549 11.2656 16.9854 11.1016C16.7217 10.9375 16.3965 10.8555 16.0098 10.8555C15.582 10.8555 15.2158 10.9551 14.9111 11.1543C14.6123 11.3477 14.3838 11.6172 14.2256 11.9629C14.0732 12.3086 13.9971 12.7041 13.9971 13.1494H11.668C11.668 12.3936 11.8438 11.7051 12.1953 11.084C12.5469 10.457 13.0508 9.95605 13.707 9.58105C14.3633 9.20605 15.1426 9.01855 16.0449 9.01855C16.9238 9.01855 17.668 9.16504 18.2773 9.45801C18.8867 9.74512 19.3496 10.1553 19.666 10.6885C19.9824 11.2217 20.1406 11.8574 20.1406 12.5957C20.1406 13.0059 20.0732 13.4102 19.9385 13.8086C19.8037 14.207 19.6133 14.6025 19.3672 14.9951C19.127 15.3818 18.8398 15.7744 18.5059 16.1729C18.1719 16.5713 17.7998 16.9785 17.3896 17.3945L14.8936 20.1719H20.5889Z" fill="white"/>
</svg>
