<svg width="46" height="46" viewBox="0 0 46 46" fill="none" xmlns="http://www.w3.org/2000/svg">
<rect x="1" y="1" width="44" height="44" rx="8" stroke="#DDDDDD"/>
<path d="M31.5556 13.4444H26.4467C25.9333 12.0267 24.5889 11 23 11C21.4111 11 20.0667 12.0267 19.5533 13.4444H14.4444C13.1 13.4444 12 14.5444 12 15.8889V33C12 34.3444 13.1 35.4444 14.4444 35.4444H31.5556C32.9 35.4444 34 34.3444 34 33V15.8889C34 14.5444 32.9 13.4444 31.5556 13.4444ZM23 13.4444C23.6722 13.4444 24.2222 13.9944 24.2222 14.6667C24.2222 15.3389 23.6722 15.8889 23 15.8889C22.3278 15.8889 21.7778 15.3389 21.7778 14.6667C21.7778 13.9944 22.3278 13.4444 23 13.4444ZM25.4444 30.5556H16.8889V28.1111H25.4444V30.5556ZM29.1111 25.6667H16.8889V23.2222H29.1111V25.6667ZM29.1111 20.7778H16.8889V18.3333H29.1111V20.7778Z" fill="#505050"/>
</svg>
