<svg width="23" height="18" viewBox="0 0 23 18" fill="none" xmlns="http://www.w3.org/2000/svg">
<path d="M22.9859 6.35869C22.9859 7.46611 22.0588 8.41303 20.9746 8.41303H16.4919C17.2255 9.21216 17.3155 10.7458 16.2091 11.7385C16.8506 12.8086 16.3055 14.2237 15.4706 14.6595C15.8735 16.963 14.4853 18 12.2113 18C12.088 18 11.6153 17.9905 11.493 17.9909C8.71081 17.9987 8.04085 16.5347 5.93813 16.1948C5.41408 16.1101 5.02817 15.6375 5.02817 15.0837V7.04348L5.02826 7.04344C5.02875 6.18253 5.50445 5.36114 6.30613 4.9882C7.60295 4.37911 10.5896 2.68955 11.1338 1.36369C11.4838 0.510844 12.0938 0.000375196 12.9296 1.96183e-07C14.466 -0.000656054 15.5223 1.64522 14.9103 3.13631C14.7494 3.52814 14.5371 3.91772 14.2749 4.30434H20.9746C22.0274 4.30434 22.9859 5.2673 22.9859 6.35869ZM4.30986 6.375V15.375C4.30986 15.9963 3.82747 16.5 3.23239 16.5H1.07746C0.48239 16.5 0 15.9963 0 15.375V6.375C0 5.75367 0.48239 5.25 1.07746 5.25H3.23239C3.82747 5.25 4.30986 5.75367 4.30986 6.375ZM3.05282 14.25C3.05282 13.7322 2.65083 13.3125 2.15493 13.3125C1.65903 13.3125 1.25704 13.7322 1.25704 14.25C1.25704 14.7678 1.65903 15.1875 2.15493 15.1875C2.65083 15.1875 3.05282 14.7678 3.05282 14.25Z" fill="#FF952D"/>
</svg>
