<svg width="46" height="46" viewBox="0 0 46 46" fill="none" xmlns="http://www.w3.org/2000/svg">
<rect x="1" y="1" width="44" height="44" rx="8" stroke="#DDDDDD"/>
<path d="M12 14.75C12 14.0207 12.2897 13.3212 12.8055 12.8055C13.3212 12.2897 14.0207 12 14.75 12H28.25C28.9793 12 29.6788 12.2897 30.1945 12.8055C30.7103 13.3212 31 14.0207 31 14.75V16.008C31.9492 16.0714 32.8389 16.4933 33.4887 17.188C34.1386 17.8828 34.5001 18.7987 34.5 19.75V30.25C34.5 31.2446 34.1049 32.1984 33.4017 32.9017C32.6984 33.6049 31.7446 34 30.75 34H15.754C14.7594 34 13.8056 33.6049 13.1024 32.9017C12.3991 32.1984 12.004 31.2446 12.004 30.25V19.75H12V15H12.011C12.0036 14.9169 11.9999 14.8335 12 14.75ZM29.5 14.75C29.5 14.06 28.94 13.5 28.25 13.5H14.75C14.4185 13.5 14.1005 13.6317 13.8661 13.8661C13.6317 14.1005 13.5 14.4185 13.5 14.75C13.5 15.0815 13.6317 15.3995 13.8661 15.6339C14.1005 15.8683 14.4185 16 14.75 16H29.5V14.75ZM27.75 25C27.5511 25 27.3603 25.079 27.2197 25.2197C27.079 25.3603 27 25.5511 27 25.75C27 25.9489 27.079 26.1397 27.2197 26.2803C27.3603 26.421 27.5511 26.5 27.75 26.5H30.25C30.4489 26.5 30.6397 26.421 30.7803 26.2803C30.921 26.1397 31 25.9489 31 25.75C31 25.5511 30.921 25.3603 30.7803 25.2197C30.6397 25.079 30.4489 25 30.25 25H27.75Z" fill="#505050"/>
</svg>
